<?xml version="1.0" encoding="UTF-8" standalone="no"?>
<!DOCTYPE svg PUBLIC "-//W3C//DTD SVG 1.1//EN"
 "http://www.w3.org/Graphics/SVG/1.1/DTD/svg11.dtd">
<!-- Generated by graphviz version 2.43.0 (0)
 -->
<!-- Title: Ogre::TextureManager Pages: 1 -->
<svg width="651pt" height="256pt"
 viewBox="0.00 0.00 651.00 256.00" xmlns="http://www.w3.org/2000/svg" xmlns:xlink="http://www.w3.org/1999/xlink">
<g id="graph0" class="graph" transform="scale(1 1) rotate(0) translate(4 252)">
<title>Ogre::TextureManager</title>
<!-- Node1 -->
<g id="node1" class="node">
<title>Node1</title>
<g id="a_node1"><a xlink:title="Class for loading &amp; managing textures.">
<polygon fill="#bfbfbf" stroke="black" points="318,-114.5 318,-133.5 443,-133.5 443,-114.5 318,-114.5"/>
<text text-anchor="middle" x="380.5" y="-121.5" font-family="Helvetica,sans-Serif" font-size="10.00">Ogre::TextureManager</text>
</a>
</g>
</g>
<!-- Node6 -->
<g id="node6" class="node">
<title>Node6</title>
<g id="a_node6"><a xlink:href="class_ogre_1_1_d3_d11_texture_manager.html" target="_top" xlink:title=" ">
<polygon fill="none" stroke="black" points="482,-228.5 482,-247.5 640,-247.5 640,-228.5 482,-228.5"/>
<text text-anchor="middle" x="561" y="-235.5" font-family="Helvetica,sans-Serif" font-size="10.00">Ogre::D3D11TextureManager</text>
</a>
</g>
</g>
<!-- Node1&#45;&gt;Node6 -->
<g id="edge5" class="edge">
<title>Node1&#45;&gt;Node6</title>
<path fill="none" stroke="midnightblue" d="M394.51,-141.56C411.5,-163.18 443.3,-199.43 479,-219 486.09,-222.89 493.96,-225.98 501.92,-228.45"/>
<polygon fill="midnightblue" stroke="midnightblue" points="397.22,-139.35 388.36,-133.54 391.67,-143.61 397.22,-139.35"/>
</g>
<!-- Node7 -->
<g id="node7" class="node">
<title>Node7</title>
<g id="a_node7"><a xlink:href="class_ogre_1_1_d3_d9_texture_manager.html" target="_top" xlink:title=" ">
<polygon fill="none" stroke="black" points="485,-190.5 485,-209.5 637,-209.5 637,-190.5 485,-190.5"/>
<text text-anchor="middle" x="561" y="-197.5" font-family="Helvetica,sans-Serif" font-size="10.00">Ogre::D3D9TextureManager</text>
</a>
</g>
</g>
<!-- Node1&#45;&gt;Node7 -->
<g id="edge6" class="edge">
<title>Node1&#45;&gt;Node7</title>
<path fill="none" stroke="midnightblue" d="M403.35,-139.34C422.49,-152.15 451.49,-170.02 479,-181 488.39,-184.75 498.7,-187.87 508.73,-190.42"/>
<polygon fill="midnightblue" stroke="midnightblue" points="405.27,-136.42 395.03,-133.69 401.33,-142.21 405.27,-136.42"/>
</g>
<!-- Node8 -->
<g id="node8" class="node">
<title>Node8</title>
<g id="a_node8"><a xlink:href="class_ogre_1_1_default_texture_manager.html" target="_top" xlink:title="Specialisation of TextureManager for offline processing. Cannot be used with an active RenderSystem.">
<polygon fill="none" stroke="black" points="480.5,-152.5 480.5,-171.5 641.5,-171.5 641.5,-152.5 480.5,-152.5"/>
<text text-anchor="middle" x="561" y="-159.5" font-family="Helvetica,sans-Serif" font-size="10.00">Ogre::DefaultTextureManager</text>
</a>
</g>
</g>
<!-- Node1&#45;&gt;Node8 -->
<g id="edge7" class="edge">
<title>Node1&#45;&gt;Node8</title>
<path fill="none" stroke="midnightblue" d="M436.37,-135.68C461.68,-141.07 491.35,-147.39 515.28,-152.48"/>
<polygon fill="midnightblue" stroke="midnightblue" points="437.05,-132.25 426.54,-133.59 435.6,-139.09 437.05,-132.25"/>
</g>
<!-- Node9 -->
<g id="node9" class="node">
<title>Node9</title>
<g id="a_node9"><a xlink:href="class_ogre_1_1_g_l3_plus_texture_manager.html" target="_top" xlink:title="GL3Plus&#45;specific implementation of a TextureManager.">
<polygon fill="none" stroke="black" points="479,-114.5 479,-133.5 643,-133.5 643,-114.5 479,-114.5"/>
<text text-anchor="middle" x="561" y="-121.5" font-family="Helvetica,sans-Serif" font-size="10.00">Ogre::GL3PlusTextureManager</text>
</a>
</g>
</g>
<!-- Node1&#45;&gt;Node9 -->
<g id="edge8" class="edge">
<title>Node1&#45;&gt;Node9</title>
<path fill="none" stroke="midnightblue" d="M453.29,-124C461.68,-124 470.29,-124 478.8,-124"/>
<polygon fill="midnightblue" stroke="midnightblue" points="453.18,-120.5 443.18,-124 453.18,-127.5 453.18,-120.5"/>
</g>
<!-- Node10 -->
<g id="node10" class="node">
<title>Node10</title>
<g id="a_node10"><a xlink:href="class_ogre_1_1_g_l_e_s2_texture_manager.html" target="_top" xlink:title="GL ES&#45;specific implementation of a TextureManager.">
<polygon fill="none" stroke="black" points="483.5,-76.5 483.5,-95.5 638.5,-95.5 638.5,-76.5 483.5,-76.5"/>
<text text-anchor="middle" x="561" y="-83.5" font-family="Helvetica,sans-Serif" font-size="10.00">Ogre::GLES2TextureManager</text>
</a>
</g>
</g>
<!-- Node1&#45;&gt;Node10 -->
<g id="edge9" class="edge">
<title>Node1&#45;&gt;Node10</title>
<path fill="none" stroke="midnightblue" d="M436.37,-112.32C461.68,-106.93 491.35,-100.61 515.28,-95.52"/>
<polygon fill="midnightblue" stroke="midnightblue" points="435.6,-108.91 426.54,-114.41 437.05,-115.75 435.6,-108.91"/>
</g>
<!-- Node11 -->
<g id="node11" class="node">
<title>Node11</title>
<g id="a_node11"><a xlink:href="class_ogre_1_1_g_l_texture_manager.html" target="_top" xlink:title="GL&#45;specific implementation of a TextureManager.">
<polygon fill="none" stroke="black" points="492.5,-38.5 492.5,-57.5 629.5,-57.5 629.5,-38.5 492.5,-38.5"/>
<text text-anchor="middle" x="561" y="-45.5" font-family="Helvetica,sans-Serif" font-size="10.00">Ogre::GLTextureManager</text>
</a>
</g>
</g>
<!-- Node1&#45;&gt;Node11 -->
<g id="edge10" class="edge">
<title>Node1&#45;&gt;Node11</title>
<path fill="none" stroke="midnightblue" d="M403.35,-108.66C422.49,-95.85 451.49,-77.98 479,-67 488.39,-63.25 498.7,-60.13 508.73,-57.58"/>
<polygon fill="midnightblue" stroke="midnightblue" points="401.33,-105.79 395.03,-114.31 405.27,-111.58 401.33,-105.79"/>
</g>
<!-- Node12 -->
<g id="node12" class="node">
<title>Node12</title>
<g id="a_node12"><a xlink:href="class_ogre_1_1_metal_texture_manager.html" target="_top" xlink:title=" ">
<polygon fill="none" stroke="black" points="485,-0.5 485,-19.5 637,-19.5 637,-0.5 485,-0.5"/>
<text text-anchor="middle" x="561" y="-7.5" font-family="Helvetica,sans-Serif" font-size="10.00">Ogre::MetalTextureManager</text>
</a>
</g>
</g>
<!-- Node1&#45;&gt;Node12 -->
<g id="edge11" class="edge">
<title>Node1&#45;&gt;Node12</title>
<path fill="none" stroke="midnightblue" d="M394.51,-106.44C411.5,-84.82 443.3,-48.57 479,-29 486.09,-25.11 493.96,-22.02 501.92,-19.55"/>
<polygon fill="midnightblue" stroke="midnightblue" points="391.67,-104.39 388.36,-114.46 397.22,-108.65 391.67,-104.39"/>
</g>
<!-- Node2 -->
<g id="node2" class="node">
<title>Node2</title>
<g id="a_node2"><a xlink:href="class_ogre_1_1_resource_manager.html" target="_top" xlink:title="Defines a generic resource handler.">
<polygon fill="none" stroke="black" points="145.5,-136.5 145.5,-155.5 279.5,-155.5 279.5,-136.5 145.5,-136.5"/>
<text text-anchor="middle" x="212.5" y="-143.5" font-family="Helvetica,sans-Serif" font-size="10.00">Ogre::ResourceManager</text>
</a>
</g>
</g>
<!-- Node2&#45;&gt;Node1 -->
<g id="edge1" class="edge">
<title>Node2&#45;&gt;Node1</title>
<path fill="none" stroke="midnightblue" d="M289.76,-135.89C299.21,-134.64 308.77,-133.37 317.96,-132.16"/>
<polygon fill="midnightblue" stroke="midnightblue" points="289.04,-132.46 279.58,-137.24 289.96,-139.4 289.04,-132.46"/>
</g>
<!-- Node3 -->
<g id="node3" class="node">
<title>Node3</title>
<g id="a_node3"><a xlink:href="class_ogre_1_1_script_loader.html" target="_top" xlink:title="Abstract class defining the interface used by classes which wish to perform script loading to define ...">
<polygon fill="none" stroke="black" points="0,-155.5 0,-174.5 107,-174.5 107,-155.5 0,-155.5"/>
<text text-anchor="middle" x="53.5" y="-162.5" font-family="Helvetica,sans-Serif" font-size="10.00">Ogre::ScriptLoader</text>
</a>
</g>
</g>
<!-- Node3&#45;&gt;Node2 -->
<g id="edge2" class="edge">
<title>Node3&#45;&gt;Node2</title>
<path fill="none" stroke="midnightblue" d="M117.41,-157.39C126.57,-156.28 136.03,-155.13 145.26,-154.02"/>
<polygon fill="midnightblue" stroke="midnightblue" points="116.72,-153.94 107.22,-158.62 117.56,-160.89 116.72,-153.94"/>
</g>
<!-- Node4 -->
<g id="node4" class="node">
<title>Node4</title>
<g id="a_node4"><a xlink:title=" ">
<polygon fill="none" stroke="#bfbfbf" points="10.5,-117.5 10.5,-136.5 96.5,-136.5 96.5,-117.5 10.5,-117.5"/>
<text text-anchor="middle" x="53.5" y="-124.5" font-family="Helvetica,sans-Serif" font-size="10.00">ResourceAlloc</text>
</a>
</g>
</g>
<!-- Node4&#45;&gt;Node2 -->
<g id="edge3" class="edge">
<title>Node4&#45;&gt;Node2</title>
<path fill="none" stroke="midnightblue" d="M106.7,-133.32C119.08,-134.82 132.44,-136.43 145.34,-137.99"/>
<polygon fill="midnightblue" stroke="midnightblue" points="106.92,-129.82 96.57,-132.09 106.08,-136.77 106.92,-129.82"/>
</g>
<!-- Node5 -->
<g id="node5" class="node">
<title>Node5</title>
<g id="a_node5"><a xlink:href="class_ogre_1_1_singleton.html" target="_top" xlink:title=" ">
<polygon fill="none" stroke="black" points="143,-87 143,-117 282,-117 282,-87 143,-87"/>
<text text-anchor="start" x="151" y="-105" font-family="Helvetica,sans-Serif" font-size="10.00">Ogre::Singleton&lt; Texture</text>
<text text-anchor="middle" x="212.5" y="-94" font-family="Helvetica,sans-Serif" font-size="10.00">Manager &gt;</text>
</a>
</g>
</g>
<!-- Node5&#45;&gt;Node1 -->
<g id="edge4" class="edge">
<title>Node5&#45;&gt;Node1</title>
<path fill="none" stroke="midnightblue" d="M292.45,-112.46C301,-113.6 309.61,-114.74 317.91,-115.84"/>
<polygon fill="midnightblue" stroke="midnightblue" points="292.83,-108.98 282.46,-111.14 291.91,-115.92 292.83,-108.98"/>
</g>
</g>
</svg>
