<?xml version="1.0" encoding="UTF-8" standalone="no"?>
<!DOCTYPE svg PUBLIC "-//W3C//DTD SVG 1.1//EN"
 "http://www.w3.org/Graphics/SVG/1.1/DTD/svg11.dtd">
<!-- Generated by graphviz version 2.43.0 (0)
 -->
<!-- Title: Ogre::ScriptLoader Pages: 1 -->
<svg width="715pt" height="430pt"
 viewBox="0.00 0.00 715.00 430.00" xmlns="http://www.w3.org/2000/svg" xmlns:xlink="http://www.w3.org/1999/xlink">
<g id="graph0" class="graph" transform="scale(1 1) rotate(0) translate(4 426)">
<title>Ogre::ScriptLoader</title>
<!-- Node1 -->
<g id="node1" class="node">
<title>Node1</title>
<g id="a_node1"><a xlink:title="Abstract class defining the interface used by classes which wish to perform script loading to define ...">
<polygon fill="#bfbfbf" stroke="black" points="0,-307.5 0,-326.5 107,-326.5 107,-307.5 0,-307.5"/>
<text text-anchor="middle" x="53.5" y="-314.5" font-family="Helvetica,sans-Serif" font-size="10.00">Ogre::ScriptLoader</text>
</a>
</g>
</g>
<!-- Node2 -->
<g id="node2" class="node">
<title>Node2</title>
<g id="a_node2"><a xlink:href="class_ogre_1_1_cg_fx_script_loader.html" target="_top" xlink:title="Manages Overlay objects, parsing them from .overlay files and storing a lookup library of them.">
<polygon fill="none" stroke="black" points="158,-402.5 158,-421.5 289,-421.5 289,-402.5 158,-402.5"/>
<text text-anchor="middle" x="223.5" y="-409.5" font-family="Helvetica,sans-Serif" font-size="10.00">Ogre::CgFxScriptLoader</text>
</a>
</g>
</g>
<!-- Node1&#45;&gt;Node2 -->
<g id="edge1" class="edge">
<title>Node1&#45;&gt;Node2</title>
<path fill="none" stroke="midnightblue" d="M69.85,-334.32C86.25,-351.75 113.86,-378.12 143,-393 150.58,-396.87 158.98,-399.97 167.39,-402.45"/>
<polygon fill="midnightblue" stroke="midnightblue" points="72.08,-331.58 62.74,-326.57 66.92,-336.31 72.08,-331.58"/>
</g>
<!-- Node3 -->
<g id="node3" class="node">
<title>Node3</title>
<g id="a_node3"><a xlink:href="class_ogre_1_1_overlay_manager.html" target="_top" xlink:title="Manages Overlay objects, parsing them from .overlay files and storing a lookup library of them.">
<polygon fill="none" stroke="black" points="160,-364.5 160,-383.5 287,-383.5 287,-364.5 160,-364.5"/>
<text text-anchor="middle" x="223.5" y="-371.5" font-family="Helvetica,sans-Serif" font-size="10.00">Ogre::OverlayManager</text>
</a>
</g>
</g>
<!-- Node1&#45;&gt;Node3 -->
<g id="edge2" class="edge">
<title>Node1&#45;&gt;Node3</title>
<path fill="none" stroke="midnightblue" d="M83.55,-330.97C100.59,-338.78 122.7,-348.27 143,-355 153.78,-358.57 165.58,-361.77 176.72,-364.47"/>
<polygon fill="midnightblue" stroke="midnightblue" points="84.7,-327.64 74.16,-326.6 81.75,-333.99 84.7,-327.64"/>
</g>
<!-- Node4 -->
<g id="node4" class="node">
<title>Node4</title>
<g id="a_node4"><a xlink:href="class_ogre_1_1_particle_system_manager.html" target="_top" xlink:title="Manages particle systems, particle system scripts (templates) and the available emitter &amp; affector fa...">
<polygon fill="none" stroke="black" points="143,-326.5 143,-345.5 304,-345.5 304,-326.5 143,-326.5"/>
<text text-anchor="middle" x="223.5" y="-333.5" font-family="Helvetica,sans-Serif" font-size="10.00">Ogre::ParticleSystemManager</text>
</a>
</g>
</g>
<!-- Node1&#45;&gt;Node4 -->
<g id="edge3" class="edge">
<title>Node1&#45;&gt;Node4</title>
<path fill="none" stroke="midnightblue" d="M117.24,-324.1C125.62,-325.04 134.3,-326.02 142.92,-327"/>
<polygon fill="midnightblue" stroke="midnightblue" points="117.53,-320.61 107.2,-322.96 116.74,-327.56 117.53,-320.61"/>
</g>
<!-- Node5 -->
<g id="node5" class="node">
<title>Node5</title>
<g id="a_node5"><a xlink:href="class_ogre_1_1_quake3_shader_manager.html" target="_top" xlink:title="Class for managing Quake3 custom shaders.">
<polygon fill="none" stroke="black" points="144,-288.5 144,-307.5 303,-307.5 303,-288.5 144,-288.5"/>
<text text-anchor="middle" x="223.5" y="-295.5" font-family="Helvetica,sans-Serif" font-size="10.00">Ogre::Quake3ShaderManager</text>
</a>
</g>
</g>
<!-- Node1&#45;&gt;Node5 -->
<g id="edge4" class="edge">
<title>Node1&#45;&gt;Node5</title>
<path fill="none" stroke="midnightblue" d="M117.22,-309.91C125.9,-308.92 134.91,-307.91 143.84,-306.9"/>
<polygon fill="midnightblue" stroke="midnightblue" points="116.74,-306.44 107.2,-311.04 117.53,-313.39 116.74,-306.44"/>
</g>
<!-- Node6 -->
<g id="node6" class="node">
<title>Node6</title>
<g id="a_node6"><a xlink:href="class_ogre_1_1_resource_manager.html" target="_top" xlink:title="Defines a generic resource handler.">
<polygon fill="none" stroke="black" points="156.5,-250.5 156.5,-269.5 290.5,-269.5 290.5,-250.5 156.5,-250.5"/>
<text text-anchor="middle" x="223.5" y="-257.5" font-family="Helvetica,sans-Serif" font-size="10.00">Ogre::ResourceManager</text>
</a>
</g>
</g>
<!-- Node1&#45;&gt;Node6 -->
<g id="edge5" class="edge">
<title>Node1&#45;&gt;Node6</title>
<path fill="none" stroke="midnightblue" d="M83.55,-303.03C100.59,-295.22 122.7,-285.73 143,-279 153.78,-275.43 165.58,-272.23 176.72,-269.53"/>
<polygon fill="midnightblue" stroke="midnightblue" points="81.75,-300.01 74.16,-307.4 84.7,-306.36 81.75,-300.01"/>
</g>
<!-- Node24 -->
<g id="node24" class="node">
<title>Node24</title>
<g id="a_node24"><a xlink:href="class_ogre_1_1_script_compiler_manager.html" target="_top" xlink:title="Manages threaded compilation of scripts.">
<polygon fill="none" stroke="black" points="143,-212.5 143,-231.5 304,-231.5 304,-212.5 143,-212.5"/>
<text text-anchor="middle" x="223.5" y="-219.5" font-family="Helvetica,sans-Serif" font-size="10.00">Ogre::ScriptCompilerManager</text>
</a>
</g>
</g>
<!-- Node1&#45;&gt;Node24 -->
<g id="edge23" class="edge">
<title>Node1&#45;&gt;Node24</title>
<path fill="none" stroke="midnightblue" d="M69.85,-299.68C86.25,-282.25 113.86,-255.88 143,-241 150.58,-237.13 158.98,-234.03 167.39,-231.55"/>
<polygon fill="midnightblue" stroke="midnightblue" points="66.92,-297.69 62.74,-307.43 72.08,-302.42 66.92,-297.69"/>
</g>
<!-- Node7 -->
<g id="node7" class="node">
<title>Node7</title>
<g id="a_node7"><a xlink:href="class_ogre_1_1_compositor_manager.html" target="_top" xlink:title="Class for managing Compositor settings for Ogre.">
<polygon fill="none" stroke="black" points="345,-392.5 345,-411.5 490,-411.5 490,-392.5 345,-392.5"/>
<text text-anchor="middle" x="417.5" y="-399.5" font-family="Helvetica,sans-Serif" font-size="10.00">Ogre::CompositorManager</text>
</a>
</g>
</g>
<!-- Node6&#45;&gt;Node7 -->
<g id="edge6" class="edge">
<title>Node6&#45;&gt;Node7</title>
<path fill="none" stroke="midnightblue" d="M298.58,-274.71C300.48,-276.02 302.29,-277.45 304,-279 340.25,-311.84 303.9,-350 340,-383 344.24,-386.88 349.15,-389.99 354.4,-392.5"/>
<polygon fill="midnightblue" stroke="midnightblue" points="300.21,-271.6 289.8,-269.61 296.7,-277.66 300.21,-271.6"/>
</g>
<!-- Node8 -->
<g id="node8" class="node">
<title>Node8</title>
<g id="a_node8"><a xlink:href="class_ogre_1_1_font_manager.html" target="_top" xlink:title="Manages Font resources, parsing .fontdef files and generally organising them.">
<polygon fill="none" stroke="black" points="362.5,-354.5 362.5,-373.5 472.5,-373.5 472.5,-354.5 362.5,-354.5"/>
<text text-anchor="middle" x="417.5" y="-361.5" font-family="Helvetica,sans-Serif" font-size="10.00">Ogre::FontManager</text>
</a>
</g>
</g>
<!-- Node6&#45;&gt;Node8 -->
<g id="edge7" class="edge">
<title>Node6&#45;&gt;Node8</title>
<path fill="none" stroke="midnightblue" d="M296.2,-273.89C298.93,-275.42 301.54,-277.12 304,-279 330.54,-299.3 313.55,-324.58 340,-345 346.61,-350.1 354.41,-353.85 362.46,-356.6"/>
<polygon fill="midnightblue" stroke="midnightblue" points="297.69,-270.72 287.16,-269.54 294.65,-277.03 297.69,-270.72"/>
</g>
<!-- Node9 -->
<g id="node9" class="node">
<title>Node9</title>
<g id="a_node9"><a xlink:href="class_ogre_1_1_gpu_program_manager.html" target="_top" xlink:title=" ">
<polygon fill="none" stroke="black" points="343,-316.5 343,-335.5 492,-335.5 492,-316.5 343,-316.5"/>
<text text-anchor="middle" x="417.5" y="-323.5" font-family="Helvetica,sans-Serif" font-size="10.00">Ogre::GpuProgramManager</text>
</a>
</g>
</g>
<!-- Node6&#45;&gt;Node9 -->
<g id="edge8" class="edge">
<title>Node6&#45;&gt;Node9</title>
<path fill="none" stroke="midnightblue" d="M288.12,-272.59C293.6,-274.46 298.96,-276.58 304,-279 322.27,-287.78 321.77,-298.14 340,-307 347.88,-310.83 356.6,-313.93 365.25,-316.43"/>
<polygon fill="midnightblue" stroke="midnightblue" points="288.77,-269.13 278.18,-269.51 286.7,-275.82 288.77,-269.13"/>
</g>
<!-- Node12 -->
<g id="node12" class="node">
<title>Node12</title>
<g id="a_node12"><a xlink:href="class_ogre_1_1_high_level_gpu_program_manager.html" target="_top" xlink:title="This ResourceManager manages high&#45;level vertex and fragment programs.">
<polygon fill="none" stroke="black" points="340,-267 340,-297 495,-297 495,-267 340,-267"/>
<text text-anchor="start" x="348" y="-285" font-family="Helvetica,sans-Serif" font-size="10.00">Ogre::HighLevelGpuProgram</text>
<text text-anchor="middle" x="417.5" y="-274" font-family="Helvetica,sans-Serif" font-size="10.00">Manager</text>
</a>
</g>
</g>
<!-- Node6&#45;&gt;Node12 -->
<g id="edge11" class="edge">
<title>Node6&#45;&gt;Node12</title>
<path fill="none" stroke="midnightblue" d="M300.74,-268.74C313.57,-270.21 326.89,-271.73 339.73,-273.2"/>
<polygon fill="midnightblue" stroke="midnightblue" points="300.91,-265.23 290.58,-267.57 300.11,-272.19 300.91,-265.23"/>
</g>
<!-- Node13 -->
<g id="node13" class="node">
<title>Node13</title>
<g id="a_node13"><a xlink:href="class_ogre_1_1_material_manager.html" target="_top" xlink:title="Class for managing Material settings for Ogre.">
<polygon fill="none" stroke="black" points="353,-228.5 353,-247.5 482,-247.5 482,-228.5 353,-228.5"/>
<text text-anchor="middle" x="417.5" y="-235.5" font-family="Helvetica,sans-Serif" font-size="10.00">Ogre::MaterialManager</text>
</a>
</g>
</g>
<!-- Node6&#45;&gt;Node13 -->
<g id="edge12" class="edge">
<title>Node6&#45;&gt;Node13</title>
<path fill="none" stroke="midnightblue" d="M300.65,-251.27C317.96,-249.29 336.17,-247.2 352.9,-245.29"/>
<polygon fill="midnightblue" stroke="midnightblue" points="300.11,-247.81 290.58,-252.43 300.91,-254.77 300.11,-247.81"/>
</g>
<!-- Node14 -->
<g id="node14" class="node">
<title>Node14</title>
<g id="a_node14"><a xlink:href="class_ogre_1_1_mesh_manager.html" target="_top" xlink:title="Handles the management of mesh resources.">
<polygon fill="none" stroke="black" points="360,-190.5 360,-209.5 475,-209.5 475,-190.5 360,-190.5"/>
<text text-anchor="middle" x="417.5" y="-197.5" font-family="Helvetica,sans-Serif" font-size="10.00">Ogre::MeshManager</text>
</a>
</g>
</g>
<!-- Node6&#45;&gt;Node14 -->
<g id="edge13" class="edge">
<title>Node6&#45;&gt;Node14</title>
<path fill="none" stroke="midnightblue" d="M284.6,-247.78C291.25,-245.8 297.83,-243.55 304,-241 321.33,-233.84 322.7,-226.23 340,-219 348.96,-215.25 358.84,-212.12 368.43,-209.55"/>
<polygon fill="midnightblue" stroke="midnightblue" points="283.57,-244.43 274.88,-250.49 285.45,-251.18 283.57,-244.43"/>
</g>
<!-- Node15 -->
<g id="node15" class="node">
<title>Node15</title>
<g id="a_node15"><a xlink:href="class_ogre_1_1_skeleton_manager.html" target="_top" xlink:title="Handles the management of skeleton resources.">
<polygon fill="none" stroke="black" points="352,-152.5 352,-171.5 483,-171.5 483,-152.5 352,-152.5"/>
<text text-anchor="middle" x="417.5" y="-159.5" font-family="Helvetica,sans-Serif" font-size="10.00">Ogre::SkeletonManager</text>
</a>
</g>
</g>
<!-- Node6&#45;&gt;Node15 -->
<g id="edge14" class="edge">
<title>Node6&#45;&gt;Node15</title>
<path fill="none" stroke="midnightblue" d="M295.92,-246.08C298.74,-244.56 301.45,-242.87 304,-241 329.08,-222.62 315,-199.49 340,-181 345.28,-177.09 351.27,-173.98 357.52,-171.51"/>
<polygon fill="midnightblue" stroke="midnightblue" points="294.19,-243.03 286.59,-250.41 297.14,-249.37 294.19,-243.03"/>
</g>
<!-- Node16 -->
<g id="node16" class="node">
<title>Node16</title>
<g id="a_node16"><a xlink:href="class_ogre_1_1_texture_manager.html" target="_top" xlink:title="Class for loading &amp; managing textures.">
<polygon fill="none" stroke="black" points="355,-114.5 355,-133.5 480,-133.5 480,-114.5 355,-114.5"/>
<text text-anchor="middle" x="417.5" y="-121.5" font-family="Helvetica,sans-Serif" font-size="10.00">Ogre::TextureManager</text>
</a>
</g>
</g>
<!-- Node6&#45;&gt;Node16 -->
<g id="edge15" class="edge">
<title>Node6&#45;&gt;Node16</title>
<path fill="none" stroke="midnightblue" d="M298.4,-245.35C300.36,-244.02 302.23,-242.57 304,-241 338.68,-210.17 305.46,-173.98 340,-143 344.38,-139.07 349.45,-135.93 354.85,-133.41"/>
<polygon fill="midnightblue" stroke="midnightblue" points="296.31,-242.51 289.33,-250.49 299.76,-248.6 296.31,-242.51"/>
</g>
<!-- Node10 -->
<g id="node10" class="node">
<title>Node10</title>
<g id="a_node10"><a xlink:href="class_ogre_1_1_d3_d9_gpu_program_manager.html" target="_top" xlink:title=" ">
<polygon fill="none" stroke="black" points="531,-335.5 531,-354.5 707,-354.5 707,-335.5 531,-335.5"/>
<text text-anchor="middle" x="619" y="-342.5" font-family="Helvetica,sans-Serif" font-size="10.00">Ogre::D3D9GpuProgramManager</text>
</a>
</g>
</g>
<!-- Node9&#45;&gt;Node10 -->
<g id="edge9" class="edge">
<title>Node9&#45;&gt;Node10</title>
<path fill="none" stroke="midnightblue" d="M502.32,-333.98C511.72,-334.88 521.31,-335.79 530.75,-336.69"/>
<polygon fill="midnightblue" stroke="midnightblue" points="502.51,-330.48 492.22,-333.02 501.84,-337.45 502.51,-330.48"/>
</g>
<!-- Node11 -->
<g id="node11" class="node">
<title>Node11</title>
<g id="a_node11"><a xlink:href="class_ogre_1_1_g_l_gpu_program_manager.html" target="_top" xlink:title=" ">
<polygon fill="none" stroke="black" points="538,-297.5 538,-316.5 700,-316.5 700,-297.5 538,-297.5"/>
<text text-anchor="middle" x="619" y="-304.5" font-family="Helvetica,sans-Serif" font-size="10.00">Ogre::GLGpuProgramManager</text>
</a>
</g>
</g>
<!-- Node9&#45;&gt;Node11 -->
<g id="edge10" class="edge">
<title>Node9&#45;&gt;Node11</title>
<path fill="none" stroke="midnightblue" d="M502.44,-318.01C514.18,-316.89 526.21,-315.74 537.88,-314.63"/>
<polygon fill="midnightblue" stroke="midnightblue" points="501.84,-314.55 492.22,-318.98 502.51,-321.52 501.84,-314.55"/>
</g>
<!-- Node17 -->
<g id="node17" class="node">
<title>Node17</title>
<g id="a_node17"><a xlink:href="class_ogre_1_1_d3_d11_texture_manager.html" target="_top" xlink:title=" ">
<polygon fill="none" stroke="black" points="540,-228.5 540,-247.5 698,-247.5 698,-228.5 540,-228.5"/>
<text text-anchor="middle" x="619" y="-235.5" font-family="Helvetica,sans-Serif" font-size="10.00">Ogre::D3D11TextureManager</text>
</a>
</g>
</g>
<!-- Node16&#45;&gt;Node17 -->
<g id="edge16" class="edge">
<title>Node16&#45;&gt;Node17</title>
<path fill="none" stroke="midnightblue" d="M488.54,-138.41C490.8,-139.81 492.96,-141.33 495,-143 523.92,-166.67 501.74,-195.74 531,-219 535.84,-222.85 541.29,-225.96 547.05,-228.47"/>
<polygon fill="midnightblue" stroke="midnightblue" points="489.9,-135.18 479.41,-133.66 486.67,-141.38 489.9,-135.18"/>
</g>
<!-- Node18 -->
<g id="node18" class="node">
<title>Node18</title>
<g id="a_node18"><a xlink:href="class_ogre_1_1_d3_d9_texture_manager.html" target="_top" xlink:title=" ">
<polygon fill="none" stroke="black" points="543,-190.5 543,-209.5 695,-209.5 695,-190.5 543,-190.5"/>
<text text-anchor="middle" x="619" y="-197.5" font-family="Helvetica,sans-Serif" font-size="10.00">Ogre::D3D9TextureManager</text>
</a>
</g>
</g>
<!-- Node16&#45;&gt;Node18 -->
<g id="edge17" class="edge">
<title>Node16&#45;&gt;Node18</title>
<path fill="none" stroke="midnightblue" d="M483.22,-137.2C487.31,-138.9 491.28,-140.83 495,-143 515.1,-154.72 510.74,-169.57 531,-181 537.87,-184.87 545.45,-187.96 553.19,-190.42"/>
<polygon fill="midnightblue" stroke="midnightblue" points="484.09,-133.79 473.5,-133.6 481.66,-140.35 484.09,-133.79"/>
</g>
<!-- Node19 -->
<g id="node19" class="node">
<title>Node19</title>
<g id="a_node19"><a xlink:href="class_ogre_1_1_default_texture_manager.html" target="_top" xlink:title="Specialisation of TextureManager for offline processing. Cannot be used with an active RenderSystem.">
<polygon fill="none" stroke="black" points="538.5,-152.5 538.5,-171.5 699.5,-171.5 699.5,-152.5 538.5,-152.5"/>
<text text-anchor="middle" x="619" y="-159.5" font-family="Helvetica,sans-Serif" font-size="10.00">Ogre::DefaultTextureManager</text>
</a>
</g>
</g>
<!-- Node16&#45;&gt;Node19 -->
<g id="edge18" class="edge">
<title>Node16&#45;&gt;Node19</title>
<path fill="none" stroke="midnightblue" d="M478.45,-135.42C506.99,-140.86 540.74,-147.28 567.89,-152.46"/>
<polygon fill="midnightblue" stroke="midnightblue" points="479.06,-131.97 468.58,-133.54 477.75,-138.85 479.06,-131.97"/>
</g>
<!-- Node20 -->
<g id="node20" class="node">
<title>Node20</title>
<g id="a_node20"><a xlink:href="class_ogre_1_1_g_l3_plus_texture_manager.html" target="_top" xlink:title="GL3Plus&#45;specific implementation of a TextureManager.">
<polygon fill="none" stroke="black" points="537,-114.5 537,-133.5 701,-133.5 701,-114.5 537,-114.5"/>
<text text-anchor="middle" x="619" y="-121.5" font-family="Helvetica,sans-Serif" font-size="10.00">Ogre::GL3PlusTextureManager</text>
</a>
</g>
</g>
<!-- Node16&#45;&gt;Node20 -->
<g id="edge19" class="edge">
<title>Node16&#45;&gt;Node20</title>
<path fill="none" stroke="midnightblue" d="M490.48,-124C505.49,-124 521.4,-124 536.72,-124"/>
<polygon fill="midnightblue" stroke="midnightblue" points="490.26,-120.5 480.26,-124 490.26,-127.5 490.26,-120.5"/>
</g>
<!-- Node21 -->
<g id="node21" class="node">
<title>Node21</title>
<g id="a_node21"><a xlink:href="class_ogre_1_1_g_l_e_s2_texture_manager.html" target="_top" xlink:title="GL ES&#45;specific implementation of a TextureManager.">
<polygon fill="none" stroke="black" points="541.5,-76.5 541.5,-95.5 696.5,-95.5 696.5,-76.5 541.5,-76.5"/>
<text text-anchor="middle" x="619" y="-83.5" font-family="Helvetica,sans-Serif" font-size="10.00">Ogre::GLES2TextureManager</text>
</a>
</g>
</g>
<!-- Node16&#45;&gt;Node21 -->
<g id="edge20" class="edge">
<title>Node16&#45;&gt;Node21</title>
<path fill="none" stroke="midnightblue" d="M478.45,-112.58C506.99,-107.14 540.74,-100.72 567.89,-95.54"/>
<polygon fill="midnightblue" stroke="midnightblue" points="477.75,-109.15 468.58,-114.46 479.06,-116.03 477.75,-109.15"/>
</g>
<!-- Node22 -->
<g id="node22" class="node">
<title>Node22</title>
<g id="a_node22"><a xlink:href="class_ogre_1_1_g_l_texture_manager.html" target="_top" xlink:title="GL&#45;specific implementation of a TextureManager.">
<polygon fill="none" stroke="black" points="550.5,-38.5 550.5,-57.5 687.5,-57.5 687.5,-38.5 550.5,-38.5"/>
<text text-anchor="middle" x="619" y="-45.5" font-family="Helvetica,sans-Serif" font-size="10.00">Ogre::GLTextureManager</text>
</a>
</g>
</g>
<!-- Node16&#45;&gt;Node22 -->
<g id="edge21" class="edge">
<title>Node16&#45;&gt;Node22</title>
<path fill="none" stroke="midnightblue" d="M443.1,-109.23C465.36,-96.43 499.41,-78.24 531,-67 541.49,-63.27 552.96,-60.13 564.03,-57.55"/>
<polygon fill="midnightblue" stroke="midnightblue" points="441.19,-106.29 434.32,-114.35 444.72,-112.34 441.19,-106.29"/>
</g>
<!-- Node23 -->
<g id="node23" class="node">
<title>Node23</title>
<g id="a_node23"><a xlink:href="class_ogre_1_1_metal_texture_manager.html" target="_top" xlink:title=" ">
<polygon fill="none" stroke="black" points="543,-0.5 543,-19.5 695,-19.5 695,-0.5 543,-0.5"/>
<text text-anchor="middle" x="619" y="-7.5" font-family="Helvetica,sans-Serif" font-size="10.00">Ogre::MetalTextureManager</text>
</a>
</g>
</g>
<!-- Node16&#45;&gt;Node23 -->
<g id="edge22" class="edge">
<title>Node16&#45;&gt;Node23</title>
<path fill="none" stroke="midnightblue" d="M433.52,-106.98C453.56,-85.4 491.15,-48.65 531,-29 538.9,-25.1 547.6,-22 556.35,-19.53"/>
<polygon fill="midnightblue" stroke="midnightblue" points="430.88,-104.69 426.74,-114.44 436.06,-109.4 430.88,-104.69"/>
</g>
</g>
</svg>
