<?xml version="1.0" encoding="UTF-8" standalone="no"?>
<!DOCTYPE svg PUBLIC "-//W3C//DTD SVG 1.1//EN"
 "http://www.w3.org/Graphics/SVG/1.1/DTD/svg11.dtd">
<!-- Generated by graphviz version 2.43.0 (0)
 -->
<!-- Title: Ogre::ResourceManager Pages: 1 -->
<svg width="688pt" height="420pt"
 viewBox="0.00 0.00 688.00 420.00" xmlns="http://www.w3.org/2000/svg" xmlns:xlink="http://www.w3.org/1999/xlink">
<g id="graph0" class="graph" transform="scale(1 1) rotate(0) translate(4 416)">
<title>Ogre::ResourceManager</title>
<!-- Node1 -->
<g id="node1" class="node">
<title>Node1</title>
<g id="a_node1"><a xlink:title="Defines a generic resource handler.">
<polygon fill="#bfbfbf" stroke="black" points="143,-250.5 143,-269.5 277,-269.5 277,-250.5 143,-250.5"/>
<text text-anchor="middle" x="210" y="-257.5" font-family="Helvetica,sans-Serif" font-size="10.00">Ogre::ResourceManager</text>
</a>
</g>
</g>
<!-- Node4 -->
<g id="node4" class="node">
<title>Node4</title>
<g id="a_node4"><a xlink:href="class_ogre_1_1_compositor_manager.html" target="_top" xlink:title="Class for managing Compositor settings for Ogre.">
<polygon fill="none" stroke="black" points="318,-392.5 318,-411.5 463,-411.5 463,-392.5 318,-392.5"/>
<text text-anchor="middle" x="390.5" y="-399.5" font-family="Helvetica,sans-Serif" font-size="10.00">Ogre::CompositorManager</text>
</a>
</g>
</g>
<!-- Node1&#45;&gt;Node4 -->
<g id="edge3" class="edge">
<title>Node1&#45;&gt;Node4</title>
<path fill="none" stroke="midnightblue" d="M221.24,-278.7C237.17,-305.97 270.53,-356.32 313,-383 319.14,-386.86 326.02,-389.93 333.06,-392.38"/>
<polygon fill="midnightblue" stroke="midnightblue" points="224.16,-276.75 216.17,-269.78 218.07,-280.2 224.16,-276.75"/>
</g>
<!-- Node5 -->
<g id="node5" class="node">
<title>Node5</title>
<g id="a_node5"><a xlink:href="class_ogre_1_1_font_manager.html" target="_top" xlink:title="Manages Font resources, parsing .fontdef files and generally organising them.">
<polygon fill="none" stroke="black" points="335.5,-354.5 335.5,-373.5 445.5,-373.5 445.5,-354.5 335.5,-354.5"/>
<text text-anchor="middle" x="390.5" y="-361.5" font-family="Helvetica,sans-Serif" font-size="10.00">Ogre::FontManager</text>
</a>
</g>
</g>
<!-- Node1&#45;&gt;Node5 -->
<g id="edge4" class="edge">
<title>Node1&#45;&gt;Node5</title>
<path fill="none" stroke="midnightblue" d="M226.63,-277.02C245.32,-296.36 278.46,-327.49 313,-345 320.57,-348.84 328.96,-351.93 337.33,-354.41"/>
<polygon fill="midnightblue" stroke="midnightblue" points="228.95,-274.39 219.54,-269.53 223.87,-279.2 228.95,-274.39"/>
</g>
<!-- Node6 -->
<g id="node6" class="node">
<title>Node6</title>
<g id="a_node6"><a xlink:href="class_ogre_1_1_gpu_program_manager.html" target="_top" xlink:title=" ">
<polygon fill="none" stroke="black" points="316,-316.5 316,-335.5 465,-335.5 465,-316.5 316,-316.5"/>
<text text-anchor="middle" x="390.5" y="-323.5" font-family="Helvetica,sans-Serif" font-size="10.00">Ogre::GpuProgramManager</text>
</a>
</g>
</g>
<!-- Node1&#45;&gt;Node6 -->
<g id="edge5" class="edge">
<title>Node1&#45;&gt;Node6</title>
<path fill="none" stroke="midnightblue" d="M239.02,-274.18C259.23,-284.02 287.34,-296.93 313,-306 324.13,-309.93 336.42,-313.48 347.83,-316.46"/>
<polygon fill="midnightblue" stroke="midnightblue" points="240.3,-270.91 229.78,-269.62 237.21,-277.18 240.3,-270.91"/>
</g>
<!-- Node9 -->
<g id="node9" class="node">
<title>Node9</title>
<g id="a_node9"><a xlink:href="class_ogre_1_1_high_level_gpu_program_manager.html" target="_top" xlink:title="This ResourceManager manages high&#45;level vertex and fragment programs.">
<polygon fill="none" stroke="black" points="313,-267 313,-297 468,-297 468,-267 313,-267"/>
<text text-anchor="start" x="321" y="-285" font-family="Helvetica,sans-Serif" font-size="10.00">Ogre::HighLevelGpuProgram</text>
<text text-anchor="middle" x="390.5" y="-274" font-family="Helvetica,sans-Serif" font-size="10.00">Manager</text>
</a>
</g>
</g>
<!-- Node1&#45;&gt;Node9 -->
<g id="edge8" class="edge">
<title>Node1&#45;&gt;Node9</title>
<path fill="none" stroke="midnightblue" d="M287.4,-269.42C295.83,-270.46 304.42,-271.51 312.85,-272.55"/>
<polygon fill="midnightblue" stroke="midnightblue" points="287.57,-265.91 277.21,-268.16 286.71,-272.86 287.57,-265.91"/>
</g>
<!-- Node10 -->
<g id="node10" class="node">
<title>Node10</title>
<g id="a_node10"><a xlink:href="class_ogre_1_1_material_manager.html" target="_top" xlink:title="Class for managing Material settings for Ogre.">
<polygon fill="none" stroke="black" points="326,-228.5 326,-247.5 455,-247.5 455,-228.5 326,-228.5"/>
<text text-anchor="middle" x="390.5" y="-235.5" font-family="Helvetica,sans-Serif" font-size="10.00">Ogre::MaterialManager</text>
</a>
</g>
</g>
<!-- Node1&#45;&gt;Node10 -->
<g id="edge9" class="edge">
<title>Node1&#45;&gt;Node10</title>
<path fill="none" stroke="midnightblue" d="M287.38,-250.59C300.17,-249.01 313.33,-247.39 325.77,-245.86"/>
<polygon fill="midnightblue" stroke="midnightblue" points="286.71,-247.14 277.21,-251.84 287.57,-254.09 286.71,-247.14"/>
</g>
<!-- Node11 -->
<g id="node11" class="node">
<title>Node11</title>
<g id="a_node11"><a xlink:href="class_ogre_1_1_mesh_manager.html" target="_top" xlink:title="Handles the management of mesh resources.">
<polygon fill="none" stroke="black" points="333,-190.5 333,-209.5 448,-209.5 448,-190.5 333,-190.5"/>
<text text-anchor="middle" x="390.5" y="-197.5" font-family="Helvetica,sans-Serif" font-size="10.00">Ogre::MeshManager</text>
</a>
</g>
</g>
<!-- Node1&#45;&gt;Node11 -->
<g id="edge10" class="edge">
<title>Node1&#45;&gt;Node11</title>
<path fill="none" stroke="midnightblue" d="M241.43,-246.48C261.49,-237.88 288.5,-226.92 313,-219 323.81,-215.5 335.65,-212.28 346.72,-209.51"/>
<polygon fill="midnightblue" stroke="midnightblue" points="239.96,-243.3 232.17,-250.48 242.74,-249.72 239.96,-243.3"/>
</g>
<!-- Node12 -->
<g id="node12" class="node">
<title>Node12</title>
<g id="a_node12"><a xlink:href="class_ogre_1_1_skeleton_manager.html" target="_top" xlink:title="Handles the management of skeleton resources.">
<polygon fill="none" stroke="black" points="325,-152.5 325,-171.5 456,-171.5 456,-152.5 325,-152.5"/>
<text text-anchor="middle" x="390.5" y="-159.5" font-family="Helvetica,sans-Serif" font-size="10.00">Ogre::SkeletonManager</text>
</a>
</g>
</g>
<!-- Node1&#45;&gt;Node12 -->
<g id="edge11" class="edge">
<title>Node1&#45;&gt;Node12</title>
<path fill="none" stroke="midnightblue" d="M227.77,-243.38C246.83,-225.4 279.67,-197.15 313,-181 320.88,-177.18 329.6,-174.08 338.25,-171.59"/>
<polygon fill="midnightblue" stroke="midnightblue" points="225.26,-240.94 220.47,-250.39 230.11,-245.98 225.26,-240.94"/>
</g>
<!-- Node13 -->
<g id="node13" class="node">
<title>Node13</title>
<g id="a_node13"><a xlink:href="class_ogre_1_1_texture_manager.html" target="_top" xlink:title="Class for loading &amp; managing textures.">
<polygon fill="none" stroke="black" points="328,-114.5 328,-133.5 453,-133.5 453,-114.5 328,-114.5"/>
<text text-anchor="middle" x="390.5" y="-121.5" font-family="Helvetica,sans-Serif" font-size="10.00">Ogre::TextureManager</text>
</a>
</g>
</g>
<!-- Node1&#45;&gt;Node13 -->
<g id="edge12" class="edge">
<title>Node1&#45;&gt;Node13</title>
<path fill="none" stroke="midnightblue" d="M221.93,-241.49C238.33,-215.4 271.82,-168.17 313,-143 319.31,-139.15 326.35,-136.07 333.55,-133.62"/>
<polygon fill="midnightblue" stroke="midnightblue" points="218.73,-240.01 216.5,-250.37 224.7,-243.66 218.73,-240.01"/>
</g>
<!-- Node2 -->
<g id="node2" class="node">
<title>Node2</title>
<g id="a_node2"><a xlink:href="class_ogre_1_1_script_loader.html" target="_top" xlink:title="Abstract class defining the interface used by classes which wish to perform script loading to define ...">
<polygon fill="none" stroke="black" points="0,-269.5 0,-288.5 107,-288.5 107,-269.5 0,-269.5"/>
<text text-anchor="middle" x="53.5" y="-276.5" font-family="Helvetica,sans-Serif" font-size="10.00">Ogre::ScriptLoader</text>
</a>
</g>
</g>
<!-- Node2&#45;&gt;Node1 -->
<g id="edge1" class="edge">
<title>Node2&#45;&gt;Node1</title>
<path fill="none" stroke="midnightblue" d="M117.34,-271.27C125.74,-270.24 134.38,-269.18 142.84,-268.14"/>
<polygon fill="midnightblue" stroke="midnightblue" points="116.74,-267.82 107.24,-272.51 117.59,-274.77 116.74,-267.82"/>
</g>
<!-- Node3 -->
<g id="node3" class="node">
<title>Node3</title>
<g id="a_node3"><a xlink:title=" ">
<polygon fill="none" stroke="#bfbfbf" points="10.5,-231.5 10.5,-250.5 96.5,-250.5 96.5,-231.5 10.5,-231.5"/>
<text text-anchor="middle" x="53.5" y="-238.5" font-family="Helvetica,sans-Serif" font-size="10.00">ResourceAlloc</text>
</a>
</g>
</g>
<!-- Node3&#45;&gt;Node1 -->
<g id="edge2" class="edge">
<title>Node3&#45;&gt;Node1</title>
<path fill="none" stroke="midnightblue" d="M106.65,-247.41C118.24,-248.84 130.67,-250.37 142.74,-251.85"/>
<polygon fill="midnightblue" stroke="midnightblue" points="107.07,-243.94 96.72,-246.19 106.22,-250.89 107.07,-243.94"/>
</g>
<!-- Node7 -->
<g id="node7" class="node">
<title>Node7</title>
<g id="a_node7"><a xlink:href="class_ogre_1_1_d3_d9_gpu_program_manager.html" target="_top" xlink:title=" ">
<polygon fill="none" stroke="black" points="504,-335.5 504,-354.5 680,-354.5 680,-335.5 504,-335.5"/>
<text text-anchor="middle" x="592" y="-342.5" font-family="Helvetica,sans-Serif" font-size="10.00">Ogre::D3D9GpuProgramManager</text>
</a>
</g>
</g>
<!-- Node6&#45;&gt;Node7 -->
<g id="edge6" class="edge">
<title>Node6&#45;&gt;Node7</title>
<path fill="none" stroke="midnightblue" d="M475.32,-333.98C484.72,-334.88 494.31,-335.79 503.75,-336.69"/>
<polygon fill="midnightblue" stroke="midnightblue" points="475.51,-330.48 465.22,-333.02 474.84,-337.45 475.51,-330.48"/>
</g>
<!-- Node8 -->
<g id="node8" class="node">
<title>Node8</title>
<g id="a_node8"><a xlink:href="class_ogre_1_1_g_l_gpu_program_manager.html" target="_top" xlink:title=" ">
<polygon fill="none" stroke="black" points="511,-297.5 511,-316.5 673,-316.5 673,-297.5 511,-297.5"/>
<text text-anchor="middle" x="592" y="-304.5" font-family="Helvetica,sans-Serif" font-size="10.00">Ogre::GLGpuProgramManager</text>
</a>
</g>
</g>
<!-- Node6&#45;&gt;Node8 -->
<g id="edge7" class="edge">
<title>Node6&#45;&gt;Node8</title>
<path fill="none" stroke="midnightblue" d="M475.44,-318.01C487.18,-316.89 499.21,-315.74 510.88,-314.63"/>
<polygon fill="midnightblue" stroke="midnightblue" points="474.84,-314.55 465.22,-318.98 475.51,-321.52 474.84,-314.55"/>
</g>
<!-- Node14 -->
<g id="node14" class="node">
<title>Node14</title>
<g id="a_node14"><a xlink:href="class_ogre_1_1_d3_d11_texture_manager.html" target="_top" xlink:title=" ">
<polygon fill="none" stroke="black" points="513,-228.5 513,-247.5 671,-247.5 671,-228.5 513,-228.5"/>
<text text-anchor="middle" x="592" y="-235.5" font-family="Helvetica,sans-Serif" font-size="10.00">Ogre::D3D11TextureManager</text>
</a>
</g>
</g>
<!-- Node13&#45;&gt;Node14 -->
<g id="edge13" class="edge">
<title>Node13&#45;&gt;Node14</title>
<path fill="none" stroke="midnightblue" d="M461.54,-138.41C463.8,-139.81 465.96,-141.33 468,-143 496.92,-166.67 474.74,-195.74 504,-219 508.84,-222.85 514.29,-225.96 520.05,-228.47"/>
<polygon fill="midnightblue" stroke="midnightblue" points="462.9,-135.18 452.41,-133.66 459.67,-141.38 462.9,-135.18"/>
</g>
<!-- Node15 -->
<g id="node15" class="node">
<title>Node15</title>
<g id="a_node15"><a xlink:href="class_ogre_1_1_d3_d9_texture_manager.html" target="_top" xlink:title=" ">
<polygon fill="none" stroke="black" points="516,-190.5 516,-209.5 668,-209.5 668,-190.5 516,-190.5"/>
<text text-anchor="middle" x="592" y="-197.5" font-family="Helvetica,sans-Serif" font-size="10.00">Ogre::D3D9TextureManager</text>
</a>
</g>
</g>
<!-- Node13&#45;&gt;Node15 -->
<g id="edge14" class="edge">
<title>Node13&#45;&gt;Node15</title>
<path fill="none" stroke="midnightblue" d="M456.22,-137.2C460.31,-138.9 464.28,-140.83 468,-143 488.1,-154.72 483.74,-169.57 504,-181 510.87,-184.87 518.45,-187.96 526.19,-190.42"/>
<polygon fill="midnightblue" stroke="midnightblue" points="457.09,-133.79 446.5,-133.6 454.66,-140.35 457.09,-133.79"/>
</g>
<!-- Node16 -->
<g id="node16" class="node">
<title>Node16</title>
<g id="a_node16"><a xlink:href="class_ogre_1_1_default_texture_manager.html" target="_top" xlink:title="Specialisation of TextureManager for offline processing. Cannot be used with an active RenderSystem.">
<polygon fill="none" stroke="black" points="511.5,-152.5 511.5,-171.5 672.5,-171.5 672.5,-152.5 511.5,-152.5"/>
<text text-anchor="middle" x="592" y="-159.5" font-family="Helvetica,sans-Serif" font-size="10.00">Ogre::DefaultTextureManager</text>
</a>
</g>
</g>
<!-- Node13&#45;&gt;Node16 -->
<g id="edge15" class="edge">
<title>Node13&#45;&gt;Node16</title>
<path fill="none" stroke="midnightblue" d="M451.45,-135.42C479.99,-140.86 513.74,-147.28 540.89,-152.46"/>
<polygon fill="midnightblue" stroke="midnightblue" points="452.06,-131.97 441.58,-133.54 450.75,-138.85 452.06,-131.97"/>
</g>
<!-- Node17 -->
<g id="node17" class="node">
<title>Node17</title>
<g id="a_node17"><a xlink:href="class_ogre_1_1_g_l3_plus_texture_manager.html" target="_top" xlink:title="GL3Plus&#45;specific implementation of a TextureManager.">
<polygon fill="none" stroke="black" points="510,-114.5 510,-133.5 674,-133.5 674,-114.5 510,-114.5"/>
<text text-anchor="middle" x="592" y="-121.5" font-family="Helvetica,sans-Serif" font-size="10.00">Ogre::GL3PlusTextureManager</text>
</a>
</g>
</g>
<!-- Node13&#45;&gt;Node17 -->
<g id="edge16" class="edge">
<title>Node13&#45;&gt;Node17</title>
<path fill="none" stroke="midnightblue" d="M463.48,-124C478.49,-124 494.4,-124 509.72,-124"/>
<polygon fill="midnightblue" stroke="midnightblue" points="463.26,-120.5 453.26,-124 463.26,-127.5 463.26,-120.5"/>
</g>
<!-- Node18 -->
<g id="node18" class="node">
<title>Node18</title>
<g id="a_node18"><a xlink:href="class_ogre_1_1_g_l_e_s2_texture_manager.html" target="_top" xlink:title="GL ES&#45;specific implementation of a TextureManager.">
<polygon fill="none" stroke="black" points="514.5,-76.5 514.5,-95.5 669.5,-95.5 669.5,-76.5 514.5,-76.5"/>
<text text-anchor="middle" x="592" y="-83.5" font-family="Helvetica,sans-Serif" font-size="10.00">Ogre::GLES2TextureManager</text>
</a>
</g>
</g>
<!-- Node13&#45;&gt;Node18 -->
<g id="edge17" class="edge">
<title>Node13&#45;&gt;Node18</title>
<path fill="none" stroke="midnightblue" d="M451.45,-112.58C479.99,-107.14 513.74,-100.72 540.89,-95.54"/>
<polygon fill="midnightblue" stroke="midnightblue" points="450.75,-109.15 441.58,-114.46 452.06,-116.03 450.75,-109.15"/>
</g>
<!-- Node19 -->
<g id="node19" class="node">
<title>Node19</title>
<g id="a_node19"><a xlink:href="class_ogre_1_1_g_l_texture_manager.html" target="_top" xlink:title="GL&#45;specific implementation of a TextureManager.">
<polygon fill="none" stroke="black" points="523.5,-38.5 523.5,-57.5 660.5,-57.5 660.5,-38.5 523.5,-38.5"/>
<text text-anchor="middle" x="592" y="-45.5" font-family="Helvetica,sans-Serif" font-size="10.00">Ogre::GLTextureManager</text>
</a>
</g>
</g>
<!-- Node13&#45;&gt;Node19 -->
<g id="edge18" class="edge">
<title>Node13&#45;&gt;Node19</title>
<path fill="none" stroke="midnightblue" d="M416.1,-109.23C438.36,-96.43 472.41,-78.24 504,-67 514.49,-63.27 525.96,-60.13 537.03,-57.55"/>
<polygon fill="midnightblue" stroke="midnightblue" points="414.19,-106.29 407.32,-114.35 417.72,-112.34 414.19,-106.29"/>
</g>
<!-- Node20 -->
<g id="node20" class="node">
<title>Node20</title>
<g id="a_node20"><a xlink:href="class_ogre_1_1_metal_texture_manager.html" target="_top" xlink:title=" ">
<polygon fill="none" stroke="black" points="516,-0.5 516,-19.5 668,-19.5 668,-0.5 516,-0.5"/>
<text text-anchor="middle" x="592" y="-7.5" font-family="Helvetica,sans-Serif" font-size="10.00">Ogre::MetalTextureManager</text>
</a>
</g>
</g>
<!-- Node13&#45;&gt;Node20 -->
<g id="edge19" class="edge">
<title>Node13&#45;&gt;Node20</title>
<path fill="none" stroke="midnightblue" d="M406.52,-106.98C426.56,-85.4 464.15,-48.65 504,-29 511.9,-25.1 520.6,-22 529.35,-19.53"/>
<polygon fill="midnightblue" stroke="midnightblue" points="403.88,-104.69 399.74,-114.44 409.06,-109.4 403.88,-104.69"/>
</g>
</g>
</svg>
